<svg xmlns="http://www.w3.org/2000/svg" xmlns:xlink="http://www.w3.org/1999/xlink" width="1em" height="1em" preserveAspectRatio="xMidYMid meet" viewBox="0 0 48 48" style="-ms-transform: rotate(360deg); -webkit-transform: rotate(360deg); transform: rotate(360deg);"><path fill="currentColor" fill-rule="evenodd" d="M6 11a1 1 0 0 1 1-1h34a1 1 0 1 1 0 2H7a1 1 0 0 1-1-1Zm0 13a1 1 0 0 1 1-1h34a1 1 0 1 1 0 2H7a1 1 0 0 1-1-1Zm0 13a1 1 0 0 1 1-1h34a1 1 0 1 1 0 2H7a1 1 0 0 1-1-1Z" clip-rule="evenodd"/></svg>